<?xml version="1.0" standalone="no"?><!DOCTYPE svg PUBLIC "-//W3C//DTD SVG 1.1//EN" "http://www.w3.org/Graphics/SVG/1.1/DTD/svg11.dtd"><svg t="1585015009879" class="icon" viewBox="0 0 1024 1024" version="1.1" xmlns="http://www.w3.org/2000/svg" p-id="1732" xmlns:xlink="http://www.w3.org/1999/xlink" width="500" height="500"><defs><style type="text/css"></style></defs><path d="M951.61409361 271.84077126a113.57249362 113.57249362 0 0 1 21.19462128 93.65605747L941.24917978 663.52294999c-12.06141276 53.31190958-55.91475745 88.61303829-106.74001703 88.6130383H350.96038618c-50.96469787 0-95.70115213-36.90466914-106.29846278-87.59049041L185.9584 171.90999149c-3.48595744-15.94244576-18.59177341-28.21301597-35.74268405-28.21301597H81.4726351C61.88155424 143.69697552 45.75319148 127.42917447 45.75319148 107.39653937 45.75319148 87.29418404 61.88155424 70.44539043 81.4726351 70.44539043h68.74308085c50.94145852 0 95.70115213 36.92790958 106.29846277 87.59049042l58.7035234 492.63550638c3.48595744 15.94244576 18.59177341 28.21301597 35.74268406 28.21301597h483.66497552a36.25395745 36.25395745 0 0 0 35.71944361-29.23556385l31.55953511-298.02612125c3.0444032-13.29311809 0.55775319-25.09889362-6.53036065-34.27858193a36.34691595 36.34691595 0 0 0-28.74752871-14.33890533H383.98402233c-19.6143202 0-35.74268405-16.384-35.74268296-36.32367659 0-19.96291595 16.12836276-36.34691595 35.74268296-36.34691595h482.52622978c33.23279469 0 64.46697342 15.33821277 85.1038415 41.50613296zM789.42411384 889.08763724a61.98032341 61.98032341 0 1 1 123.93740636 0 61.98032341 61.98032341 0 0 1-123.93740636 0z m-495.77286809 0a61.98032341 61.98032341 0 1 1 123.93740637 0 61.98032341 61.98032341 0 0 1-123.93740637 0z" p-id="1733"></path></svg>