<?xml version="1.0" standalone="no"?><!DOCTYPE svg PUBLIC "-//W3C//DTD SVG 1.1//EN" "http://www.w3.org/Graphics/SVG/1.1/DTD/svg11.dtd"><svg t="1585105168492" class="icon" viewBox="0 0 1024 1024" version="1.1" xmlns="http://www.w3.org/2000/svg" p-id="2223" xmlns:xlink="http://www.w3.org/1999/xlink" width="500" height="500"><defs><style type="text/css"></style></defs><path d="M963.5334796 356.49262463l-283.94343419-40.93085994-127.90065698-258.36330227c-7.67536402-15.34940371-25.58145622-25.5801319-43.48754843-25.58013192s-33.25549593 10.23072819-43.48754842 28.13682041l-122.78728129 260.92528931-283.94343419 40.9255614c-17.9060922 2.55668849-33.25549593 15.34940371-38.37019722 33.25549592-5.11735122 17.9060922 0 35.81218442 12.788741 48.60224973L239.60648523 645.55076011 201.23363808 932.05088279c-2.55668849 17.90476789 5.11735122 35.81218442 17.90476791 46.04821116 7.67536402 5.11205267 17.9060922 10.23072819 28.13814471 10.23072819 7.6740397 0 15.34940371-2.56198704 23.02344343-5.11867553L513.31389268 847.63512434l240.45721005 133.0206581c7.6740397 2.55536418 15.34940371 5.11205267 23.02344343 5.11205267 25.58145622 0 46.04556123-20.46145638 46.04556124-48.60092543l0-10.23072819-38.36887291-283.94343418 204.64370133-204.64370134c12.78741669-12.79271523 17.9060922-30.69880745 12.78741668-48.60489965C994.23228703 371.83672981 981.4395718 359.04931313 963.5334796 356.49262463L963.5334796 356.49262463zM303.55681436 640.43605882c2.55668849-15.34940371-2.56066272-33.25549593-15.34940371-43.48754843L91.23774772 417.88096673l276.26939447-38.37019722c15.34940371-2.55668849 30.6935089-12.78741669 38.36887292-28.13682039l102.32450058-237.90052159 112.55257886 232.78184606c7.6740397 15.34940371 20.46675493 25.58145622 38.37284715 28.14344326l268.59403046 43.48224988L735.86501053 602.06188737c-12.78741669 10.23205251-17.9060922 28.13682041-12.78741669 43.48754842l30.69350889 266.03734199-217.43244232-127.90198258c-12.78874099-7.6740397-30.69483321-5.11735122-46.04556124 2.5566885l-222.54979355 122.78728128L303.55681436 640.43605882 303.55681436 640.43605882z" p-id="2224" fill="#f4ea2a"></path><path d="M510.75852849 78.29577918L374.75462637 340.58816822 59.47387446 404.17420263 285.11553931 632.02415689 239.63430356 942.0060711 523.12203826 809.53516715 772.16733691 928.75898071 743.02373855 639.97241088 949.67834846 420.07071059 652.94352335 367.08234901Z" p-id="2225" fill="#f4ea2a"></path></svg>