<?xml version="1.0" standalone="no"?><!DOCTYPE svg PUBLIC "-//W3C//DTD SVG 1.1//EN" "http://www.w3.org/Graphics/SVG/1.1/DTD/svg11.dtd"><svg t="1585104009265" class="icon" viewBox="0 0 1024 1024" version="1.1" xmlns="http://www.w3.org/2000/svg" p-id="1856" xmlns:xlink="http://www.w3.org/1999/xlink" width="500" height="500"><defs><style type="text/css"></style></defs><path d="M811.24864 372.41344a35.83488 35.83488 0 0 0-50.68288 0l-286.01344 286.00832-170.15808-170.15808a35.83488 35.83488 0 0 0-50.68288 0 35.83488 35.83488 0 0 0 0 50.68288l195.49696 195.49696 0.00512 0.00512a35.83488 35.83488 0 0 0 50.68288 0l311.35232-311.35232a35.83488 35.83488 0 0 0 0-50.68288z" fill="#d81e06" p-id="1857"></path><path d="M512 133.12c208.91648 0 378.88 169.96352 378.88 378.88s-169.96352 378.88-378.88 378.88-378.88-169.96352-378.88-378.88 169.96352-378.88 378.88-378.88m0-71.68c-248.83712 0-450.56 201.72288-450.56 450.56s201.72288 450.56 450.56 450.56 450.56-201.72288 450.56-450.56-201.72288-450.56-450.56-450.56z" fill="#d81e06" p-id="1858"></path></svg>