<?xml version="1.0" standalone="no"?><!DOCTYPE svg PUBLIC "-//W3C//DTD SVG 1.1//EN" "http://www.w3.org/Graphics/SVG/1.1/DTD/svg11.dtd"><svg t="1585188731230" class="icon" viewBox="0 0 1024 1024" version="1.1" xmlns="http://www.w3.org/2000/svg" p-id="2334" xmlns:xlink="http://www.w3.org/1999/xlink" width="500" height="500"><defs><style type="text/css"></style></defs><path d="M581.44285583 102.73053012c23.4640384 0 43.71462258 17.4923685 49.25084444 42.53984882l3.33919801 14.42910891c3.7106085 21.46377955 5.5862875 43.16856775 5.5862875 64.71966947 0 53.19780579-5.07050439 94.19496221-15.50142464 125.33403421l-27.28408974 81.45757525 85.90518158 0.3597676c82.9141083 0.34812473 209.01541205 0.94191502 221.17065273 1.17593771 21.721088 0.92794311 30.27865714 8.33984512 37.68008021 20.76287317 7.55394674 12.71759531 8.84165632 25.42354659 8.45161813 34.35136115-5.63169507 34.95213739-75.19366713 348.60390969-86.8715463 395.84867442-4.30556274 7.45614563-10.11539513 13.73635357-16.89159226 18.25498225-11.69185109 7.74023395-12.45795669 7.74023395-17.77179989 7.74023396l-503.2502363 0.02794268 0.70090525-456.53289756C447.60597504 415.15280724 536.10287787 302.59108977 539.60507733 172.05498537l0.09081515-3.41138432-0.18512327-2.25989632 0.03027172-1.33544619 0.08732216-5.3382929C539.62836309 132.26753022 552.71503986 102.73053012 581.44285583 102.73053012M164.20724509 467.42150484l0 442.55437141-83.44153316 0L80.76571193 467.42150484 164.20724509 467.42150484M581.44285583 40.6351815c-62.34567111 0-103.9110053 54.03493376-103.9110053 119.07478414 0 3.66170795-0.29223822 7.17089337 0 10.68007879-3.26351872 121.62226062-99.31786126 219.39626667-213.59458418 232.80545337l-0.8720566 568.63588239 11.15394616 0c-0.01513586-0.01862883 0.11759389-0.03027171 0.51927609-0.03027173 0.41681806 0 0.54605483 0.01164288 0.53091897 0.03027173l553.2415727-0.03027173c0.11759389 0 0.23169479 0 0.34812472 0 20.88279609 0 32.67710521-5.46869362 51.69586518-18.05938005 18.13156637-12.09004032 31.84347022-28.62186496 40.77710563-47.31112902 2.47529131-3.75252309 88.36068011-389.61853213 90.55537607-412.51322994 1.71733561-24.41876025-3.58137173-49.67930539-16.91138616-72.11992861-21.01552583-35.28163328-51.55149255-49.53143979-88.48991688-51.0927599-1.9175936-0.29922418-223.48643555-1.22833123-223.48643555-1.22833123 14.67128149-43.80077966 18.71487886-96.00544199 18.71487886-145.0560273 0-31.82833437-3.46377785-62.78926791-9.83945785-92.61268537l-0.5495478 0.06054342C679.77572352 79.60762936 635.00741405 40.6351815 581.44285583 40.6351815L581.44285583 40.6351815zM182.64152861 405.32615622L62.33142841 405.32615622c-24.13117895 0-43.66106397 20.15860509-43.66106396 45.00233216l0 476.74389504c0 24.84023523 19.52988501 44.99883918 43.66106396 44.99883918l120.3101002 0c24.13117895 0 43.66106397-20.15860509 43.66106396-44.99883918L226.30259371 450.32965347C226.30259371 425.48592525 206.77270756 405.32615622 182.64152861 405.32615622L182.64152861 405.32615622zM275.27400789 971.83254299l-1.05019392 0c0.01164288 0.01513586 0.10245803 0.03376469 0.2235449 0.06054344-0.08732217 0.03376469-0.08382919 0.04890055 0 0.04890054 0.06054343 0 0.16300146-0.0081499 0.2957312-0.01862883 0.14437262 0.01164288 0.25381661 0.01862883 0.31436003 0.01862883 0.09430813 0 0.10245803-0.01513586 0-0.04890054C275.17504285 971.86630769 275.26236501 971.84767885 275.27400789 971.83254299L275.27400789 971.83254299z" p-id="2335" fill="#8a8a8a"></path></svg>