<?xml version="1.0" standalone="no"?><!DOCTYPE svg PUBLIC "-//W3C//DTD SVG 1.1//EN" "http://www.w3.org/Graphics/SVG/1.1/DTD/svg11.dtd"><svg t="1585035263357" class="icon" viewBox="0 0 1024 1024" version="1.1" xmlns="http://www.w3.org/2000/svg" p-id="2978" xmlns:xlink="http://www.w3.org/1999/xlink" width="500" height="500"><defs><style type="text/css"></style></defs><path d="M891.81752889 180.16064853c-11.46443093-10.57896675-26.47071858-15.86845013-41.40710116-15.86845013-1.77092835 0-2.65639253 0-4.4040192 0-0.88546418 0-10.57896675 0.88546418-25.56195271 0.88546418-25.56195271 0-74.00616391-1.77092835-120.67944675-13.2120576-59.93194382-14.07422009-129.53408853-80.15780978-149.80655787-93.39316907-9.67020089-6.17494755-22.020096-9.69350258-33.48452693-9.69350258-11.44112925 0-22.88225849 3.51855502-33.46122525 9.69350258-2.63309085 1.77092835-74.8683264 76.63925475-145.35593529 93.39316907-46.69658453 11.44112925-96.91172409 13.2120576-121.56491093 13.2120576-15.86845013 0-25.53865102-0.88546418-26.4241152-0.88546418-0.88546418 0-2.65639253 0-3.51855502 0-15.86845013 0-29.96597191 5.28948338-41.40710116 15.86845013-12.32659342 10.57896675-19.36370347 26.4241152-19.36370347 42.29256534l0 146.21809778c0 539.1777792 365.58019698 608.73332053 380.56318294 611.38971306 3.51855502 0.88546418 7.06041173 0.88546418 10.55566506 0.88546418 3.51855502 0 7.08371342 0 10.60226845-0.88546418 15.84514845-2.65639253 383.19627378-72.23523555 383.19627378-611.38971306l0-146.21809778C910.29576818 206.58476373 903.21205475 190.73961529 891.81752889 180.16064853L891.81752889 180.16064853zM756.13179449 388.96708267L503.28516835 633.8445312c-1.77092835 2.65639253-3.51855502 5.31278507-6.17494755 7.08371342-7.06041173 7.03711005-16.73061262 10.55566507-26.4241152 10.55566507-9.71680427 0-19.38700515-3.51855502-27.30957938-10.55566507-1.77092835-1.77092835-4.38071751-4.4040192-5.28948337-7.08371342l-135.66243272-131.25841351c-14.09752178-14.09752178-14.09752178-36.09431609 0-50.19183787 14.07422009-14.12082347 37.86524445-14.12082347 51.96276622 0l116.29872925 111.87140836 233.45962098-225.51374507c15.00628765-14.09752178 37.86524445-14.09752178 51.96276622 0C771.09147875 351.96400071 771.09147875 374.86956089 756.13179449 388.96708267L756.13179449 388.96708267z" p-id="2979" fill="#d81e06"></path></svg>