<?xml version="1.0" standalone="no"?><!DOCTYPE svg PUBLIC "-//W3C//DTD SVG 1.1//EN" "http://www.w3.org/Graphics/SVG/1.1/DTD/svg11.dtd"><svg t="1584953005868" class="icon" viewBox="0 0 1024 1024" version="1.1" xmlns="http://www.w3.org/2000/svg" p-id="1822" xmlns:xlink="http://www.w3.org/1999/xlink" width="500" height="500"><defs><style type="text/css"></style></defs><path d="M773.216 695.968l179.68 179.68a32 32 0 0 1-45.248 45.248l-179.68-179.68A382.464 382.464 0 0 1 480 832C267.936 832 96 660.064 96 448S267.936 64 480 64s384 171.936 384 384c0 94.528-34.144 181.056-90.784 247.968zM480 768c176.736 0 320-143.264 320-320S656.736 128 480 128 160 271.264 160 448s143.264 320 320 320z" p-id="1823"></path></svg>