<?xml version="1.0" standalone="no"?><!DOCTYPE svg PUBLIC "-//W3C//DTD SVG 1.1//EN" "http://www.w3.org/Graphics/SVG/1.1/DTD/svg11.dtd"><svg t="1585040337111" class="icon" viewBox="0 0 1032 1024" version="1.1" xmlns="http://www.w3.org/2000/svg" p-id="1905" xmlns:xlink="http://www.w3.org/1999/xlink" width="503.90625" height="500"><defs><style type="text/css"></style></defs><path d="M853.19465491 624.66410161L853.19465491 624.66410161c-17.47067132 0-31.63401326 14.27616873-31.63401327 31.88615852l0 200.55511c0 13.10962594-10.54303543 23.73605686-23.54866387 23.73605687L225.6112746 880.841427c-13.00464762 0-23.54768305-10.62642998-23.54768305-23.73605687L202.06359155 657.28609491c0-17.60998981-14.16236017-31.88615853-31.63401327-31.88615853l0 0c-17.47067132 0-31.63401326 14.27616873-31.63401326 31.88615853l0 199.820257c0 48.32960554 38.86873754 87.50837489 86.8147278 87.50837489l572.40168495 0c47.94697204 0 86.81570957-39.17876839 86.81570957-87.50837489l0-200.55511C884.82866817 638.94027033 870.666308 624.66410161 853.19465491 624.66410161z" p-id="1906"></path><path d="M782.1287462 285.05394303L232.24359575 285.05394303c-9.91806676 0-18.03284935 8.11478259-18.03284935 18.03284935l0 20.8025298c0 9.91806676 8.11478259 18.03284935 18.03284935 18.03284935l549.88515045 0c9.91806676 0 18.03284935-8.11478259 18.03284935-18.03284935l0-20.8025298C800.16257733 293.16872466 792.04779474 285.05394303 782.1287462 285.05394303z" p-id="1907"></path><path d="M992.94825658 374.97879805c-0.79764459-6.80695871-8.92518071-24.81528088-15.7625544-36.98107705l-0.25607046 0.19916571c-0.46014218-1.31861577-1.04390399-2.61074078-1.75717225-3.85773471L851.85249373 110.2020207l-3.38483804-5.32940329c-0.7054198-0.94481155-1.35295401-1.87098178-1.97988528-2.76183198-5.80131914-8.23938304-17.87390874-25.38432562-45.18317747-25.38432561L210.4619152 76.72645886c-15.58006741 0-33.28816884 8.8977101-45.1125374 22.66762474l-2.26146471 2.63330633L40.60091293 322.54814087c-1.56291256 3.12974936-2.67255059 6.21436666-3.39661171 9.1734027-0.22663726 0.67206236-0.42285955 1.40985877-0.57787496 2.23497492-43.33770466 137.16346385 65.01146347 248.13416465 172.72585187 252.9347483 66.62833642 0 125.28415216-35.05515216 158.77443012-87.82821776 33.60801171 52.78287571 91.39161856 87.6898801 156.90933516 87.6898801 66.09264913 0 124.31481343-35.52314376 157.78841267-89.08404194 31.23568089 54.1456408 87.4475459 88.73280327 155.08152287 88.73280327 50.40367821 0 92.71219596-21.79639763 121.38717318-70.99526865C980.92275972 478.29289585 1000.93353175 443.09548179 992.94825658 374.97879805zM914.76928063 483.18079923c-19.53787633 28.59845033-46.33696578 38.46648095-74.91677576 38.46648095-62.91482526 0-109.85615675-43.46623126-118.95793857-105.993517 0.08830055-11.7399932-11.68701268-23.29553682-22.53223144-23.29553682l-18.73042068 0c-0.47878254 0-0.95364179 0.02845238-1.42359409 0.07260265l-8.94970884 0c-11.44860271 0.6916845-19.27101303 9.19498743-19.09146946 23.46330769 0.83394544 66.47528263-59.66341887 106.55078902-125.13208016 106.55078903-64.46498334 0-117.74430208-50.50473229-124.833822-115.28661509-0.92224599-8.42383262-7.92248454-14.72649984-16.11477388-14.72649984l-9.5148303 0c-5.2234432-0.3983314-10.64605306 0-15.30633742 0l-5.91022264 0c-9.67278915 0-18.59796984 7.9136543-19.58889427 17.61195239-6.47534314 63.39949558-59.80273639 110.82353384-124.41488669 111.11492435-69.83461268 0.31493687-139.65647088-101.05459568-116.29617986-164.43937418 0.00490602-0.00883024 0.00784847-0.01667871 0.01177366-0.02648979 1.66396664-3.1837107 3.47215778-7.02770914 5.45694812-11.65169265L213.22374718 141.03544595l583.78160924 0c0.38950212 0.55040437 0.80156882 1.12827935 1.23816367 1.73068247l125.74233174 219.25119147c4.88201656 5.37747781 10.77065351 22.91290332 11.30732259 24.26683911 0.48172595 1.2165799 0.89575621 1.95241372 1.27838972 2.336029C944.36748563 423.2927057 925.65766885 467.24360632 914.76928063 483.18079923z" p-id="1908"></path></svg>